<!-- Generator: Adobe Illustrator 21.0.1, SVG Export Plug-In  -->
<svg version="1.1"
	 xmlns="http://www.w3.org/2000/svg" xmlns:xlink="http://www.w3.org/1999/xlink" xmlns:a="http://ns.adobe.com/AdobeSVGViewerExtensions/3.0/"
	 x="0px" y="0px" width="38px" height="45px" viewBox="0 0 38 45" style="enable-background:new 0 0 38 45;" xml:space="preserve">
<style type="text/css">
	.st0{fill:#FFFFFF;}
</style>
<defs>
</defs>
<g>
	<image style="overflow:visible;opacity:0.3;" width="38" height="45" xlink:href="D513045C89D59A1B.png" >
	</image>
	<g>
		<g>
			<path class="st0" d="M16.5,27.7h1.3c2.7,0,4.8-2.2,4.8-4.8h-11C11.7,25.5,13.8,27.7,16.5,27.7z"/>
			<path class="st0" d="M17.8,8.8h-1.3c-2.7,0-4.8,2.2-4.8,4.8h11C22.7,11,20.5,8.8,17.8,8.8z"/>
			<rect x="11.7" y="14.6" class="st0" width="10.9" height="1.8"/>
			<rect x="11.7" y="17.3" class="st0" width="10.9" height="1.8"/>
			<rect x="11.7" y="20.1" class="st0" width="10.9" height="1.8"/>
			<path class="st0" d="M26.4,22c0-0.5-0.4-0.9-0.9-0.9c-0.5,0-0.9,0.4-0.9,0.9c0,4.1-3.4,7.5-7.5,7.5c-4.1,0-7.5-3.4-7.5-7.5
				c0-0.5-0.4-0.9-0.9-0.9c-0.5,0-0.9,0.4-0.9,0.9c0,4.8,3.7,8.8,8.4,9.3v2.8H18v-2.8C22.7,30.8,26.4,26.8,26.4,22z"/>
		</g>
	</g>
</g>
</svg>
